<svg width="48" height="48" xmlns="http://www.w3.org/2000/svg" viewBox="0 0 48 48"><defs><style>.a,.d{fill:none;}.a{stroke:#fff;stroke-width:2px;}.a,.b,.d{stroke-miterlimit:10;}.b{fill:#eaeaea;}.b,.d{stroke:#606060;}.c,.e{fill:#606060;}.c{opacity:0.5;}.f{opacity:0.35;}.g{fill:#fff;}</style></defs><path class="a" d="M23.37,36h16c.25,0,3.24-1,3.24-1a1.25,1.25,0,0,0,.55-1V26.32a1.25,1.25,0,0,0-.18-.65L35.79,14.08a1.22,1.22,0,0,0-1.06-.59H13.08a1.25,1.25,0,0,0-1.06.59L4.89,25.67a1.26,1.26,0,0,0-.19.65V34a1.24,1.24,0,0,0,.56,1,18,18,0,0,0,2.17,1Z"/><path class="b" d="M23.37,36h16c.25,0,3.24-1,3.24-1a1.25,1.25,0,0,0,.55-1V26.32a1.25,1.25,0,0,0-.18-.65L35.79,14.08a1.22,1.22,0,0,0-1.06-.59H13.08a1.25,1.25,0,0,0-1.06.59L4.89,25.67a1.26,1.26,0,0,0-.19.65V34a1.24,1.24,0,0,0,.56,1,18,18,0,0,0,2.17,1Z"/><polygon class="c" points="4.7 25.97 43.11 25.97 43.11 34.61 39.32 36 7.43 36 4.7 34.61 4.7 25.97"/><line class="d" x1="4.7" y1="25.97" x2="43.11" y2="25.97"/><path class="e" d="M32,15.13a.68.68,0,0,1,.58.33L36,21.24a1.07,1.07,0,0,1-.92,1.6H12.75a1.06,1.06,0,0,1-.92-.53,1.08,1.08,0,0,1,0-1.07l3.38-5.78a.69.69,0,0,1,.58-.33H32m0-.25H15.79a.92.92,0,0,0-.79.46l-3.38,5.78a1.31,1.31,0,0,0,1.13,2H35.06a1.31,1.31,0,0,0,1.14-2l-3.39-5.78a.91.91,0,0,0-.79-.46Z"/><path class="d" d="M23.37,36h16c.25,0,3.24-1,3.24-1a1.25,1.25,0,0,0,.55-1V26.32a1.25,1.25,0,0,0-.18-.65L35.79,14.08a1.22,1.22,0,0,0-1.06-.59H13.08a1.25,1.25,0,0,0-1.06.59L4.89,25.67a1.26,1.26,0,0,0-.19.65V34a1.24,1.24,0,0,0,.56,1,18,18,0,0,0,2.17,1Z"/><polygon class="e" points="36.66 27.68 33.78 27.68 36.17 30.07 28.05 30.07 28.05 32.07 36.17 32.07 33.78 34.46 36.66 34.46 40.05 31.07 36.66 27.68"/><g class="f"><polygon class="g" points="36.66 34.15 39.75 31.07 40.05 31.07 36.66 34.46 33.78 34.46 34.4 34.15 36.66 34.15"/><polygon class="g" points="36.17 32.07 28.05 32.07 28.36 31.76 36.48 31.76 36.17 32.07"/><polygon class="g" points="36.17 30.07 33.78 27.68 34.4 27.98 36.17 29.76 36.49 30.38 36.17 30.07"/></g><g class="f"><polygon points="36.66 27.98 39.75 31.07 40.05 31.07 36.66 27.68 33.78 27.68 34.4 27.98 36.66 27.98"/><polygon points="36.17 30.07 28.05 30.07 28.36 30.38 36.49 30.38 36.17 30.07"/><polygon points="36.17 32.07 33.78 34.46 34.4 34.15 36.17 32.38 36.48 31.76 36.17 32.07"/></g><polygon class="e" points="11.44 27.68 14.32 27.68 11.93 30.07 20.05 30.07 20.05 32.07 11.93 32.07 14.32 34.46 11.44 34.46 8.05 31.07 11.44 27.68"/><g class="f"><polygon class="g" points="11.44 34.15 8.36 31.07 8.05 31.07 11.44 34.46 14.32 34.46 13.7 34.15 11.44 34.15"/><polygon class="g" points="11.93 32.07 20.05 32.07 19.75 31.76 11.62 31.76 11.93 32.07"/><polygon class="g" points="11.93 30.07 14.32 27.68 13.7 27.98 11.93 29.76 11.62 30.38 11.93 30.07"/></g><g class="f"><polygon points="11.44 27.98 8.36 31.07 8.05 31.07 11.44 27.68 14.32 27.68 13.7 27.98 11.44 27.98"/><polygon points="11.93 30.07 20.05 30.07 19.75 30.38 11.62 30.38 11.93 30.07"/><polygon points="11.93 32.07 14.32 34.46 13.7 34.15 11.93 32.38 11.62 31.76 11.93 32.07"/></g></svg>