<svg width="48" height="48" xmlns="http://www.w3.org/2000/svg" viewBox="0 0 48 48"><defs><style>.a,.f,.h,.i{fill:none;}.a{stroke:#fff;stroke-width:2px;}.a,.i{stroke-linejoin:round;}.b{fill:#d5d5d5;}.c{fill:#a8a8a8;}.d,.g{fill:#606060;}.e{fill:#cd3c3a;}.f,.h,.i{stroke:#606060;}.f,.h{stroke-miterlimit:10;}.f{stroke-width:0.5px;}.g{opacity:0.5;}.j{fill:#0085c7;}.k{fill:#3d46a2;}</style></defs><polygon class="a" points="12.42 4.84 8.91 8.36 8.91 39.08 9.28 40 29.63 40 30 39.08 30 8.36 26.48 4.84 12.42 4.84"/><polygon class="b" points="12.42 4.84 8.91 8.36 8.91 40 30 40 30 8.36 26.48 4.84 12.42 4.84"/><rect class="c" x="11.92" y="12.25" width="15.07" height="2.77"/><path class="d" d="M26.61,12.62v2H12.29v-2H26.61m.75-.75H11.54v3.52H27.36V11.87Z"/><rect class="c" x="11.92" y="17.52" width="15.07" height="2.77"/><path class="d" d="M26.61,17.9v2H12.29v-2H26.61m.75-.75H11.54v3.51H27.36V17.15Z"/><rect class="c" x="17.19" y="23.68" width="9.8" height="2.77"/><path class="d" d="M26.61,24.05v2h-9v-2h9m.75-.75H16.82v3.52H27.36V23.3Z"/><circle class="e" cx="13.3" cy="25.06" r="1.32"/><line class="f" x1="15.94" y1="34.73" x2="22.97" y2="34.73"/><line class="f" x1="15.06" y1="36.48" x2="23.85" y2="36.48"/><line class="f" x1="15.94" y1="38.24" x2="22.97" y2="38.24"/><polygon class="g" points="26.48 4.84 12.42 4.84 8.91 8.36 30 8.36 26.48 4.84"/><line class="h" x1="8.91" y1="8.36" x2="30" y2="8.36"/><polygon class="i" points="12.42 4.84 8.91 8.36 8.91 39.08 9.28 40 29.63 40 30 39.08 30 8.36 26.48 4.84 12.42 4.84"/><path d="M42.78,33.71a1.24,1.24,0,0,1,1.18.86A.85.85,0,0,1,44,35q-1,5-2,10a1.23,1.23,0,0,1-1.4,1H24.68c-.92,0-1.42-.45-1.42-1.28V31.34c0-.91.48-1.33,1.5-1.33,1.36,0,2.73,0,4.09,0a1.23,1.23,0,0,1,1.06.46c.19.24.38.49.55.74a.65.65,0,0,0,.62.3H41.25c1.06,0,1.52.42,1.53,1.38ZM32.59,45.26h7.94c.31,0,.52-.07.58-.39q1-4.92,2-9.85c.08-.39,0-.54-.49-.54H26.7c-.32,0-.48.11-.54.39-.66,3.25-1.34,6.49-2,9.73-.11.54,0,.66.63.66Zm9.35-11.53v-.81c0-.61-.07-.68-.74-.68H31a1.24,1.24,0,0,1-1.06-.47c-.2-.26-.4-.52-.59-.79a.55.55,0,0,0-.51-.24c-1.35,0-2.7,0-4.05,0-.55,0-.66.1-.66.6v9.17a.49.49,0,0,0,.13-.26c.37-1.78.73-3.56,1.1-5.35.19-.9.56-1.18,1.58-1.18h15Z"/><path class="j" d="M32.59,45.26H24.78c-.62,0-.74-.12-.63-.66.67-3.24,1.35-6.48,2-9.73.06-.28.22-.39.54-.39h16c.44,0,.57.15.49.54q-1,4.93-2,9.85c-.06.32-.27.39-.58.39Z"/><path class="k" d="M41.94,33.73h-15c-1,0-1.39.28-1.58,1.18-.37,1.79-.73,3.57-1.1,5.35a.49.49,0,0,1-.13.26V31.35c0-.5.11-.6.66-.6,1.35,0,2.7,0,4.05,0a.55.55,0,0,1,.51.24c.19.27.39.53.59.79a1.24,1.24,0,0,0,1.06.47H41.2c.67,0,.74.07.74.68Z"/></svg>