<svg width="48" height="48" xmlns="http://www.w3.org/2000/svg" xmlns:xlink="http://www.w3.org/1999/xlink" viewBox="0 0 48 48"><defs><style>.a,.b,.g,.i,.j{fill:none;}.b{stroke:#fff;stroke-width:2px;}.b,.j{stroke-linejoin:round;}.c{fill:#d5d5d5;}.d{fill:#a8a8a8;}.e,.h{fill:#606060;}.f{fill:#cd3c3a;}.g,.i,.j{stroke:#606060;}.g,.i{stroke-miterlimit:10;}.g{stroke-width:0.5px;}.h,.l{opacity:0.5;}.k{fill:#fcfdfe;}.m{clip-path:url(#a);}.n{fill:#3d46a2;}.o{fill:#0085c7;}.p{fill:#2db9e7;}</style><clipPath id="a"><rect class="a" x="-39.72" y="12.27" width="31.49" height="23.33"/></clipPath></defs><polygon class="b" points="12.42 4.84 8.91 8.36 8.91 39.08 9.28 40 29.63 40 30 39.08 30 8.36 26.48 4.84 12.42 4.84"/><polygon class="c" points="12.42 4.84 8.91 8.36 8.91 40 30 40 30 8.36 26.48 4.84 12.42 4.84"/><rect class="d" x="11.92" y="12.25" width="15.07" height="2.77"/><path class="e" d="M26.61,12.62v2H12.29v-2H26.61m.75-.75H11.54v3.52H27.36V11.87Z"/><rect class="d" x="11.92" y="17.52" width="15.07" height="2.77"/><path class="e" d="M26.61,17.9v2H12.29v-2H26.61m.75-.75H11.54v3.51H27.36V17.15Z"/><rect class="d" x="17.19" y="23.68" width="9.8" height="2.77"/><path class="e" d="M26.61,24.05v2h-9v-2h9m.75-.75H16.82v3.52H27.36V23.3Z"/><circle class="f" cx="13.3" cy="25.06" r="1.32"/><line class="g" x1="15.94" y1="34.73" x2="22.97" y2="34.73"/><line class="g" x1="15.06" y1="36.48" x2="23.85" y2="36.48"/><line class="g" x1="15.94" y1="38.24" x2="22.97" y2="38.24"/><polygon class="h" points="26.48 4.84 12.42 4.84 8.91 8.36 30 8.36 26.48 4.84"/><line class="i" x1="8.91" y1="8.36" x2="30" y2="8.36"/><polygon class="j" points="12.42 4.84 8.91 8.36 8.91 39.08 9.28 40 29.63 40 30 39.08 30 8.36 26.48 4.84 12.42 4.84"/><rect x="20" y="32" width="24" height="14" rx="1"/><path class="k" d="M32,40.63c1.84,0,7.12-4.63,10.68-8.16H21.32C24.88,36,30.16,40.63,32,40.63Z"/><path class="k" d="M26.76,38.87a79.24,79.24,0,0,1-6.18-5.57V44.76Z"/><path class="k" d="M36.34,39.55C34.63,40.81,33,41.72,32,41.72s-2.63-.91-4.34-2.17l-6.27,6H42.61Z"/><path class="k" d="M37.24,38.87l6.18,5.89V33.3A79.24,79.24,0,0,1,37.24,38.87Z"/><g class="l"><g class="m"><path class="n" d="M5.3,6.75H-45.11c-2.72,0-5,1.62-5.19,3.71l-3.05,30.61c-.23,2.33,2.16,4.32,5.19,4.32H9.69c3,0,5.32-1.9,5.2-4.18L10.5,10.6C10.39,8.45,8.09,6.75,5.3,6.75Z"/><path class="o" d="M-46.36,6.75a4.28,4.28,0,0,0-4.41,3.71l-2.17,25.7c21.3.14,33.37-13.5,55.34-12.77L.84,10.6A4.26,4.26,0,0,0-3.57,6.75Z"/><path class="p" d="M2.85,11.64l-.13-1A4.24,4.24,0,0,0-1.69,6.75H-44.48a4.28,4.28,0,0,0-4.4,3.71l-1.2,14.26C-20.47,23.18-25.08,13.58,2.85,11.64Z"/></g></g></svg>